<svg width="29" height="36" viewBox="0 0 29 36" fill="none" xmlns="http://www.w3.org/2000/svg">
<path d="M14.3333 3.50011C14.3333 4.97287 15.5272 6.16678 17 6.16678C18.4728 6.16678 19.6667 4.97287 19.6667 3.50011C19.6667 2.02736 18.4728 0.833448 17 0.833448C15.5272 0.833448 14.3333 2.02736 14.3333 3.50011ZM5.5 35.5L5.64682 35.978C16.6218 32.6065 24.6903 22.8129 27.4526 14.6867C28.8259 10.6466 28.9408 6.85329 27.2306 4.4777C25.4717 2.03454 21.9993 1.34522 16.8451 3.02472L17 3.50011L17.1549 3.97551C22.1754 2.33959 25.0522 3.16333 26.419 5.06196C27.8345 7.02818 27.8517 10.4054 26.5058 14.3649C23.8295 22.2379 15.9734 31.7596 5.35318 35.022L5.5 35.5Z" fill="#FF5D6F"/>
<circle cx="9.5" cy="17.5" r="9" stroke="#5CCAFF"/>
</svg>
