<svg width="21" height="31" viewBox="0 0 21 31" fill="none" xmlns="http://www.w3.org/2000/svg">
<path d="M17.1339 28.6062C17.7493 27.2681 17.1635 25.6846 15.8255 25.0692C14.4875 24.4537 12.9039 25.0395 12.2885 26.3775C11.6731 27.7155 12.2588 29.2991 13.5968 29.9145C14.9349 30.5299 16.5184 29.9442 17.1339 28.6062ZM20.262 1.50999L20.3283 1.01441C8.91445 -0.513323 1.93037 5.49052 0.6267 12.354C-0.0222176 15.7704 0.749833 19.3712 3.07067 22.2768C5.39295 25.1843 9.233 27.3563 14.6532 27.9885L14.7112 27.4918L14.7691 26.9952C9.56019 26.3877 5.98058 24.3176 3.85201 21.6528C1.72199 18.986 1.01199 15.6844 1.60913 12.5406C2.79758 6.28371 9.21806 0.536233 20.1956 2.00557L20.262 1.50999Z" fill="#5CCAFF"/>
</svg>
