<svg width="16" height="16" viewBox="0 0 16 16" fill="none" xmlns="http://www.w3.org/2000/svg">
<path d="M1.37466 7.564C1.31934 7.41543 1.31934 7.2519 1.37466 7.10333C2.51533 4 5.116 2 8 2C10.884 2 13.4847 4 14.6253 7.10333C14.6807 7.25167 14.6807 7.41499 14.6253 7.56333C14.4333 8.08794 14.1922 8.59329 13.9053 9.07267C13.8614 9.14983 13.8025 9.21744 13.732 9.27152C13.6616 9.3256 13.5811 9.36507 13.4952 9.3876C13.4093 9.41014 13.3198 9.41528 13.2319 9.40274C13.1439 9.3902 13.0594 9.36022 12.9833 9.31457C12.9071 9.26891 12.8408 9.2085 12.7883 9.13688C12.7358 9.06526 12.6982 8.98387 12.6776 8.8975C12.6569 8.81113 12.6538 8.7215 12.6683 8.6339C12.6828 8.54629 12.7147 8.46246 12.762 8.38733C12.9637 8.05018 13.1386 7.69778 13.2853 7.33333C12.3007 4.89533 10.2487 3.33333 8 3.33333C5.75133 3.33333 3.69933 4.89533 2.71466 7.33333C3.04697 8.25517 3.59271 9.08527 4.30727 9.7558C5.02183 10.4263 5.88492 10.9182 6.826 11.1913C6.99673 11.2345 7.14346 11.3434 7.23415 11.4944C7.32483 11.6453 7.35211 11.826 7.31002 11.997C7.26793 12.168 7.1599 12.3154 7.00951 12.407C6.85911 12.4986 6.67858 12.527 6.50733 12.486C5.31511 12.1467 4.22405 11.5207 3.32938 10.6628C2.43471 9.80485 1.76361 8.74096 1.37466 7.564ZM10.6667 7.33333C10.6666 6.89202 10.5569 6.45764 10.3476 6.06913C10.1383 5.68062 9.83579 5.35014 9.46729 5.10732C9.09879 4.86449 8.67579 4.71692 8.23621 4.67782C7.79664 4.63873 7.35423 4.70935 6.94866 4.88333C7.06328 4.9693 7.15809 5.07889 7.22667 5.20468C7.29525 5.33047 7.33599 5.46953 7.34615 5.61244C7.3563 5.75536 7.33563 5.89878 7.28554 6.03301C7.23544 6.16724 7.15708 6.28913 7.05577 6.39044C6.95446 6.49175 6.83257 6.57011 6.69834 6.6202C6.56411 6.6703 6.42069 6.69097 6.27777 6.68082C6.13486 6.67066 5.9958 6.62991 5.87001 6.56134C5.74422 6.49276 5.63463 6.39795 5.54866 6.28333C5.39291 6.64702 5.32004 7.04081 5.33532 7.43615C5.35061 7.83149 5.45367 8.21848 5.63703 8.56906C5.8204 8.91964 6.07948 9.22502 6.39548 9.46307C6.71149 9.70112 7.07651 9.86588 7.46407 9.94539C7.85164 10.0249 8.25204 10.0172 8.63625 9.92278C9.02046 9.82839 9.37885 9.64968 9.68544 9.39962C9.99203 9.14956 10.2391 8.83442 10.4089 8.47703C10.5786 8.11964 10.6666 7.72897 10.6667 7.33333ZM11.6667 14C11.8435 14 12.013 13.9298 12.1381 13.8047C12.2631 13.6797 12.3333 13.5101 12.3333 13.3333V12.3333H13.3333C13.5101 12.3333 13.6797 12.2631 13.8047 12.1381C13.9298 12.013 14 11.8435 14 11.6667C14 11.4899 13.9298 11.3203 13.8047 11.1953C13.6797 11.0702 13.5101 11 13.3333 11H12.3333V10C12.3333 9.82319 12.2631 9.65362 12.1381 9.5286C12.013 9.40357 11.8435 9.33333 11.6667 9.33333C11.4899 9.33333 11.3203 9.40357 11.1953 9.5286C11.0702 9.65362 11 9.82319 11 10V11H10C9.82319 11 9.65362 11.0702 9.52859 11.1953C9.40357 11.3203 9.33333 11.4899 9.33333 11.6667C9.33333 11.8435 9.40357 12.013 9.52859 12.1381C9.65362 12.2631 9.82319 12.3333 10 12.3333H11V13.3333C11 13.5101 11.0702 13.6797 11.1953 13.8047C11.3203 13.9298 11.4899 14 11.6667 14Z" fill="#B75959" stroke="black" stroke-width="0.008"/>
</svg>
