<svg width="16" height="16" viewBox="0 0 16 16" fill="none" xmlns="http://www.w3.org/2000/svg">
<path fill-rule="evenodd" clip-rule="evenodd" d="M6.64369 12.8582C6.47862 12.7028 5.86159 12.111 5.57391 11.8286C5.50981 11.7659 5.45051 11.7351 5.35996 11.7375C2.72279 11.8027 1.74276 9.52477 2.36619 7.88129C2.84378 6.62121 4.16678 5.85458 5.47054 6.09145C6.56516 6.28926 6.83921 6.72617 8.55165 8.48442C9.02523 8.97119 9.80813 8.24372 9.3097 7.7309C8.7648 7.17087 8.23273 6.59546 7.66619 6.05903C6.56596 5.0171 5.2694 4.70679 3.83583 5.15043C1.90703 5.74546 0.777958 7.76813 1.21869 9.76488C1.62015 11.5842 3.18595 12.8605 5.01859 12.8621C5.15402 12.8621 6.50826 12.8656 6.64369 12.8582ZM7.03954 4.25903C7.04915 4.27205 7.05156 4.27768 7.05557 4.28012C7.38571 4.44455 7.69904 4.63928 7.99713 4.85824C8.01556 4.87208 8.06204 4.86626 8.08528 4.8516C9.71758 3.80072 11.8171 4.16309 13.0046 5.71215C14.2451 7.32795 13.8677 9.36545 12.8412 10.5164C11.2762 12.2698 8.85375 12.0881 7.4963 10.6954C6.76309 9.94322 6.02507 9.19587 5.29025 8.44535C4.71249 7.85683 3.96645 8.67826 4.48811 9.20004C7.10204 11.8057 7.53877 12.5829 9.39225 12.8329C11.027 13.0518 12.6528 12.4684 13.7699 11.0993C15.3044 9.21484 15.1778 6.51456 13.6962 4.82387C11.7714 2.62849 8.83452 2.73032 7.03954 4.25903ZM16 7.72778C16 10.9415 14.0688 13.5854 10.3707 13.9989C9.96519 13.9989 5.05144 14.0069 4.65479 13.9832C-0.290215 13.6666 -1.88726 6.69149 2.7933 4.31215C3.64592 3.87829 4.64918 3.69519 5.75181 3.84496C5.78226 3.84985 5.82553 3.83569 5.84717 3.81371C9.13101 0.405473 15.3854 1.85066 16 7.72778Z" fill="#333333"/>
</svg>
