<svg width="16" height="16" viewBox="0 0 16 16" fill="none" xmlns="http://www.w3.org/2000/svg">
<path fill-rule="evenodd" clip-rule="evenodd" d="M2.95 9.4235C2.77658 9.84009 2.67969 10.2845 2.664 10.7355C2.68793 11.0136 2.78279 11.281 2.9395 11.512C3.23438 11.8534 3.58901 12.1382 3.986 12.3525L6.55 14.0595C6.8655 14.3106 7.22026 14.5079 7.6 14.6435C7.84656 14.7022 8.10344 14.7022 8.35 14.6435C8.73227 14.5096 9.08989 14.3136 9.4085 14.0635L12 12.3555C12.401 12.1406 12.7597 11.8546 13.0585 11.5115C13.2163 11.2792 13.3111 11.0099 13.3335 10.73C13.3165 10.2754 13.217 9.8276 13.04 9.4085L10.7735 2.2755C10.7229 2.04449 10.6315 1.82437 10.5035 1.6255C10.4103 1.51225 10.2899 1.42451 10.1535 1.3705C9.92565 1.30873 9.6886 1.28807 9.4535 1.3095H6.5025C6.26731 1.28812 6.03018 1.30929 5.8025 1.372C5.66581 1.4259 5.54528 1.51406 5.4525 1.628C5.32509 1.82688 5.23448 2.04705 5.185 2.278L2.95 9.4235ZM9.57 2.8235C9.67542 2.9911 9.75009 3.17617 9.7905 3.37L11.7365 9.762C11.0056 9.38288 10.221 9.11766 9.41 8.9755L8.1455 4.6955C8.13773 4.67022 8.12401 4.64717 8.1055 4.62829C8.08698 4.6094 8.06421 4.59523 8.03909 4.58695C8.01397 4.57867 7.98724 4.57654 7.96112 4.58072C7.93501 4.58491 7.91028 4.59529 7.889 4.611C7.86045 4.63189 7.83954 4.66158 7.8295 4.6955L6.5795 8.974C5.76464 9.11585 4.97644 9.38213 4.2425 9.7635L6.1965 3.3715C6.23651 3.17731 6.31138 2.99198 6.4175 2.8245C6.49489 2.72952 6.59497 2.65558 6.7085 2.6095C6.89976 2.5578 7.09875 2.54087 7.296 2.5595H8.6925C8.88991 2.54085 9.08907 2.55779 9.2805 2.6095C9.39436 2.65571 9.49465 2.73002 9.572 2.8255L9.57 2.8235ZM8.0635 10.53C8.66525 10.5648 9.26198 10.4028 9.7635 10.0685C9.82051 10.248 9.84072 10.4371 9.82294 10.6245C9.80515 10.812 9.74974 10.994 9.66 11.1595C9.47552 11.4731 9.20779 11.7294 8.8865 11.9C8.5495 12.114 8.2595 12.3 8.2595 12.7935C8.25908 12.9518 8.29482 13.1081 8.364 13.2505C8.13674 13.1561 7.94255 12.9965 7.80594 12.7918C7.66934 12.5872 7.59646 12.3466 7.5965 12.1005V12.07C7.5965 11.7285 7.5965 11.308 7.1155 11.308C7.04845 11.308 6.98203 11.321 6.92 11.3465C6.79517 11.3982 6.69592 11.4973 6.644 11.622C6.61822 11.684 6.6048 11.7504 6.6045 11.8175C6.27481 11.4575 6.09772 10.9835 6.1105 10.4955C6.10816 10.2843 6.13766 10.0739 6.198 9.8715C6.398 10.25 7.158 10.5315 8.0635 10.5315V10.53Z" fill="#FF8C64"/>
</svg>
