<svg width="14" height="5" viewBox="0 0 14 5" fill="none" xmlns="http://www.w3.org/2000/svg">
<path d="M-3.45707e-06 4.20001V1.19209e-05H2.052C2.58 1.19209e-05 2.976 0.100012 3.24 0.300012C3.508 0.500012 3.642 0.764012 3.642 1.09201C3.642 1.31201 3.588 1.50401 3.48 1.66801C3.372 1.82801 3.224 1.95201 3.036 2.04001C2.848 2.12801 2.632 2.17201 2.388 2.17201L2.502 1.92601C2.766 1.92601 3 1.97001 3.204 2.05801C3.408 2.14201 3.566 2.26801 3.678 2.43601C3.794 2.60401 3.852 2.81001 3.852 3.05401C3.852 3.41401 3.71 3.69601 3.426 3.90001C3.142 4.10001 2.724 4.20001 2.172 4.20001H-3.45707e-06ZM0.965997 3.46801H2.1C2.352 3.46801 2.542 3.42801 2.67 3.34801C2.802 3.26401 2.868 3.13201 2.868 2.95201C2.868 2.77601 2.802 2.64601 2.67 2.56201C2.542 2.47401 2.352 2.43001 2.1 2.43001H0.893997V1.72201H1.932C2.168 1.72201 2.348 1.68201 2.472 1.60201C2.6 1.51801 2.664 1.39201 2.664 1.22401C2.664 1.06001 2.6 0.938012 2.472 0.858012C2.348 0.774012 2.168 0.732012 1.932 0.732012H0.965997V3.46801ZM5.54189 1.69201H7.56389V2.44801H5.54189V1.69201ZM5.61389 3.42001H7.89989V4.20001H4.64789V1.19209e-05H7.82189V0.780012H5.61389V3.42001ZM8.73328 4.20001V1.19209e-05H9.53728L11.3253 2.96401H10.8993L12.6573 1.19209e-05H13.4553L13.4673 4.20001H12.5553L12.5493 1.39801H12.7173L11.3133 3.75601H10.8753L9.44128 1.39801H9.64528V4.20001H8.73328Z" fill="#EA7B7B"/>
</svg>
