<svg width="12" height="5" viewBox="0 0 12 5" fill="none" xmlns="http://www.w3.org/2000/svg">
<path d="M2.274 4.344C1.95 4.344 1.648 4.292 1.368 4.188C1.092 4.08 0.851997 3.928 0.647996 3.732C0.443996 3.536 0.283996 3.306 0.167996 3.042C0.0559965 2.778 -3.53903e-06 2.488 -3.53903e-06 2.172C-3.53903e-06 1.856 0.0559965 1.566 0.167996 1.302C0.283996 1.038 0.443996 0.808003 0.647996 0.612003C0.855997 0.416003 1.098 0.266003 1.374 0.162003C1.65 0.054003 1.952 3.09944e-06 2.28 3.09944e-06C2.644 3.09944e-06 2.972 0.0640031 3.264 0.192003C3.56 0.316003 3.808 0.500003 4.008 0.744003L3.384 1.32C3.24 1.156 3.08 1.034 2.904 0.954003C2.728 0.870003 2.536 0.828003 2.328 0.828003C2.132 0.828003 1.952 0.860003 1.788 0.924003C1.624 0.988003 1.482 1.08 1.362 1.2C1.242 1.32 1.148 1.462 1.08 1.626C1.016 1.79 0.983997 1.972 0.983997 2.172C0.983997 2.372 1.016 2.554 1.08 2.718C1.148 2.882 1.242 3.024 1.362 3.144C1.482 3.264 1.624 3.356 1.788 3.42C1.952 3.484 2.132 3.516 2.328 3.516C2.536 3.516 2.728 3.476 2.904 3.396C3.08 3.312 3.24 3.186 3.384 3.018L4.008 3.594C3.808 3.838 3.56 4.024 3.264 4.152C2.972 4.28 2.642 4.344 2.274 4.344ZM6.08095 4.344C5.74495 4.344 5.42295 4.3 5.11495 4.212C4.80695 4.12 4.55895 4.002 4.37095 3.858L4.70095 3.126C4.88095 3.254 5.09295 3.36 5.33695 3.444C5.58495 3.524 5.83495 3.564 6.08695 3.564C6.27895 3.564 6.43295 3.546 6.54895 3.51C6.66895 3.47 6.75695 3.416 6.81295 3.348C6.86895 3.28 6.89695 3.202 6.89695 3.114C6.89695 3.002 6.85295 2.914 6.76495 2.85C6.67695 2.782 6.56095 2.728 6.41695 2.688C6.27295 2.644 6.11295 2.604 5.93695 2.568C5.76495 2.528 5.59095 2.48 5.41495 2.424C5.24295 2.368 5.08495 2.296 4.94095 2.208C4.79695 2.12 4.67895 2.004 4.58695 1.86C4.49895 1.716 4.45495 1.532 4.45495 1.308C4.45495 1.068 4.51895 0.850003 4.64695 0.654003C4.77895 0.454003 4.97495 0.296003 5.23495 0.180003C5.49895 0.060003 5.82895 3.09944e-06 6.22495 3.09944e-06C6.48895 3.09944e-06 6.74895 0.032003 7.00495 0.0960029C7.26095 0.156003 7.48695 0.248003 7.68295 0.372003L7.38295 1.11C7.18695 0.998003 6.99095 0.916003 6.79495 0.864003C6.59895 0.808003 6.40695 0.780003 6.21895 0.780003C6.03095 0.780003 5.87695 0.802003 5.75695 0.846003C5.63695 0.890003 5.55095 0.948003 5.49895 1.02C5.44695 1.088 5.42095 1.168 5.42095 1.26C5.42095 1.368 5.46495 1.456 5.55295 1.524C5.64095 1.588 5.75695 1.64 5.90095 1.68C6.04495 1.72 6.20295 1.76 6.37495 1.8C6.55095 1.84 6.72495 1.886 6.89695 1.938C7.07295 1.99 7.23295 2.06 7.37695 2.148C7.52095 2.236 7.63695 2.352 7.72495 2.496C7.81695 2.64 7.86295 2.822 7.86295 3.042C7.86295 3.278 7.79695 3.494 7.66495 3.69C7.53295 3.886 7.33495 4.044 7.07095 4.164C6.81095 4.284 6.48095 4.344 6.08095 4.344ZM9.96712 4.344C9.63112 4.344 9.30912 4.3 9.00112 4.212C8.69312 4.12 8.44512 4.002 8.25712 3.858L8.58712 3.126C8.76712 3.254 8.97912 3.36 9.22312 3.444C9.47112 3.524 9.72112 3.564 9.97312 3.564C10.1651 3.564 10.3191 3.546 10.4351 3.51C10.5551 3.47 10.6431 3.416 10.6991 3.348C10.7551 3.28 10.7831 3.202 10.7831 3.114C10.7831 3.002 10.7391 2.914 10.6511 2.85C10.5631 2.782 10.4471 2.728 10.3031 2.688C10.1591 2.644 9.99912 2.604 9.82312 2.568C9.65112 2.528 9.47712 2.48 9.30112 2.424C9.12912 2.368 8.97112 2.296 8.82712 2.208C8.68312 2.12 8.56512 2.004 8.47312 1.86C8.38512 1.716 8.34112 1.532 8.34112 1.308C8.34112 1.068 8.40512 0.850003 8.53312 0.654003C8.66512 0.454003 8.86112 0.296003 9.12112 0.180003C9.38512 0.060003 9.71512 3.09944e-06 10.1111 3.09944e-06C10.3751 3.09944e-06 10.6351 0.032003 10.8911 0.0960029C11.1471 0.156003 11.3731 0.248003 11.5691 0.372003L11.2691 1.11C11.0731 0.998003 10.8771 0.916003 10.6811 0.864003C10.4851 0.808003 10.2931 0.780003 10.1051 0.780003C9.91712 0.780003 9.76312 0.802003 9.64312 0.846003C9.52312 0.890003 9.43712 0.948003 9.38512 1.02C9.33312 1.088 9.30712 1.168 9.30712 1.26C9.30712 1.368 9.35112 1.456 9.43912 1.524C9.52712 1.588 9.64312 1.64 9.78712 1.68C9.93112 1.72 10.0891 1.76 10.2611 1.8C10.4371 1.84 10.6111 1.886 10.7831 1.938C10.9591 1.99 11.1191 2.06 11.2631 2.148C11.4071 2.236 11.5231 2.352 11.6111 2.496C11.7031 2.64 11.7491 2.822 11.7491 3.042C11.7491 3.278 11.6831 3.494 11.5511 3.69C11.4191 3.886 11.2211 4.044 10.9571 4.164C10.6971 4.284 10.3671 4.344 9.96712 4.344Z" fill="#718BC5"/>
</svg>
