<svg width="12" height="12" viewBox="0 0 12 12" fill="none" xmlns="http://www.w3.org/2000/svg">
<g clip-path="url(#clip0_25_372)">
<g clip-path="url(#clip1_25_372)">
<path d="M2.375 2.62503C2.375 2.1609 2.55937 1.71578 2.88756 1.38759C3.21575 1.0594 3.66087 0.875031 4.125 0.875031H5.875V4.37503H4.125C3.66087 4.37503 3.21575 4.19066 2.88756 3.86247C2.55937 3.53428 2.375 3.08916 2.375 2.62503Z" stroke="#FB7575" stroke-linecap="round" stroke-linejoin="round"/>
<path d="M5.875 0.875031H7.625C7.85481 0.875031 8.08238 0.920296 8.2947 1.00824C8.50702 1.09619 8.69993 1.22509 8.86244 1.38759C9.02494 1.5501 9.15384 1.74301 9.24179 1.95533C9.32973 2.16765 9.375 2.39522 9.375 2.62503C9.375 2.85484 9.32973 3.08241 9.24179 3.29473C9.15384 3.50705 9.02494 3.69996 8.86244 3.86247C8.69993 4.02497 8.50702 4.15387 8.2947 4.24182C8.08238 4.32977 7.85481 4.37503 7.625 4.37503H5.875V0.875031Z" stroke="#FB7575" stroke-linecap="round" stroke-linejoin="round"/>
<path d="M5.875 6.12503C5.875 5.89522 5.92026 5.66765 6.00821 5.45533C6.09616 5.24301 6.22506 5.0501 6.38756 4.88759C6.55007 4.72509 6.74298 4.59619 6.9553 4.50824C7.16762 4.4203 7.39519 4.37503 7.625 4.37503C7.85481 4.37503 8.08238 4.4203 8.2947 4.50824C8.50702 4.59619 8.69993 4.72509 8.86244 4.88759C9.02494 5.0501 9.15384 5.24301 9.24179 5.45533C9.32973 5.66765 9.375 5.89522 9.375 6.12503C9.375 6.35484 9.32973 6.58241 9.24179 6.79473C9.15384 7.00705 9.02494 7.19996 8.86244 7.36247C8.69993 7.52497 8.50702 7.65387 8.2947 7.74182C8.08238 7.82977 7.85481 7.87503 7.625 7.87503C7.39519 7.87503 7.16762 7.82977 6.9553 7.74182C6.74298 7.65387 6.55007 7.52497 6.38756 7.36247C6.22506 7.19996 6.09616 7.00705 6.00821 6.79473C5.92026 6.58241 5.875 6.35484 5.875 6.12503V6.12503Z" stroke="#FB7575" stroke-linecap="round" stroke-linejoin="round"/>
<path d="M2.375 9.62503C2.375 9.1609 2.55937 8.71578 2.88756 8.38759C3.21575 8.0594 3.66087 7.87503 4.125 7.87503H5.875V9.62503C5.875 10.0892 5.69063 10.5343 5.36244 10.8625C5.03425 11.1907 4.58913 11.375 4.125 11.375C3.66087 11.375 3.21575 11.1907 2.88756 10.8625C2.55937 10.5343 2.375 10.0892 2.375 9.62503Z" stroke="#FB7575" stroke-linecap="round" stroke-linejoin="round"/>
<path d="M2.375 6.12503C2.375 5.6609 2.55937 5.21578 2.88756 4.88759C3.21575 4.55941 3.66087 4.37503 4.125 4.37503H5.875V7.87503H4.125C3.66087 7.87503 3.21575 7.69066 2.88756 7.36247C2.55937 7.03428 2.375 6.58916 2.375 6.12503Z" stroke="#FB7575" stroke-linecap="round" stroke-linejoin="round"/>
</g>
</g>
<defs>
<clipPath id="clip0_25_372">
<rect width="12" height="12" fill="white"/>
</clipPath>
<clipPath id="clip1_25_372">
<rect width="9" height="12" fill="white" transform="translate(0.877563 -0.122437)"/>
</clipPath>
</defs>
</svg>
