<svg width="16" height="16" viewBox="0 0 16 16" fill="none" xmlns="http://www.w3.org/2000/svg">
<path d="M1.29268 8.7066C0.90244 8.31635 0.90244 7.68365 1.29268 7.2934L7.2934 1.29268C7.68365 0.90244 8.31635 0.90244 8.7066 1.29268L14.7073 7.2934C15.0976 7.68365 15.0976 8.31635 14.7073 8.7066L8.7066 14.7073C8.31635 15.0976 7.68365 15.0976 7.2934 14.7073L1.29268 8.7066Z" fill="#EF7263"/>
<path d="M6.07445 2.53076L5.4668 3.13843L7.03625 4.70789C6.97275 4.8441 6.9373 4.99601 6.9373 5.1562C6.9373 5.611 7.22305 5.99905 7.6248 6.1506V9.9899C7.22305 10.1415 6.9373 10.5295 6.9373 10.9843C6.9373 11.5711 7.413 12.0468 7.9998 12.0468C8.5866 12.0468 9.0623 11.5711 9.0623 10.9843C9.0623 10.572 8.82745 10.2145 8.4842 10.0384V6.15585L9.98445 7.6561C9.92405 7.78955 9.89045 7.9377 9.89045 8.0937C9.89045 8.6805 10.3662 9.1562 10.953 9.1562C11.5397 9.1562 12.0155 8.6805 12.0155 8.0937C12.0155 7.5069 11.5397 7.0312 10.953 7.0312C10.8389 7.0312 10.7291 7.04915 10.6261 7.0824L9.01485 5.47115C9.0457 5.37165 9.0623 5.26585 9.0623 5.1562C9.0623 4.56939 8.5866 4.09369 7.9998 4.09369C7.89015 4.09369 7.7844 4.11031 7.68485 4.14115L6.07445 2.53076Z" fill="#EDEDED"/>
</svg>
