<svg width="16" height="16" viewBox="0 0 16 16" fill="none" xmlns="http://www.w3.org/2000/svg">
<path d="M2.71627 1.99588C2.75509 1.30915 2.91913 1.01052 3.38955 0.770717C3.89571 0.512609 4.69404 0.632725 5.63343 1.10842C6.03804 1.3134 6.07924 1.31758 6.78833 1.22666C7.73087 1.10578 8.94427 1.1062 9.8142 1.22777C10.4721 1.3197 10.5153 1.31511 10.9209 1.1097C12.2543 0.434463 13.307 0.478643 13.6882 1.22581C13.8785 1.59876 13.9138 2.56648 13.7663 3.36464C13.6845 3.80714 13.6931 3.86238 13.8902 4.15276C15.2767 6.19591 14.2777 9.50774 11.9019 10.7437C11.7201 10.8383 11.5669 10.8968 11.442 10.9445C11.0586 11.0909 10.9422 11.1353 11.0831 11.8092C11.151 12.1333 11.2327 12.9392 11.2649 13.6001C11.3229 14.7948 11.3221 14.8031 11.1125 15.0469C10.8273 15.3784 10.4163 15.384 10.1377 15.0601C9.95607 14.8489 9.93833 14.7492 9.93833 13.9343C9.93833 12.7301 9.80633 11.9297 9.49447 11.2439C9.1236 10.4277 9.39853 10.1233 10.2467 9.94094C11.4255 9.68734 12.3463 8.95981 12.8595 7.87641C13.3474 6.84654 13.4209 5.42335 12.5388 4.5578C12.2879 4.25968 12.2705 3.98965 12.4496 3.1754C12.5165 2.87108 12.5727 2.47846 12.5743 2.30284C12.5769 2.0255 12.5516 1.98362 12.3813 1.98362C12.2735 1.98362 11.8616 2.14042 11.4661 2.33204L10.8349 2.63798C10.7775 2.66578 10.7133 2.67648 10.65 2.66921C9.045 2.48498 7.51993 2.48214 5.90708 2.66993C5.84351 2.67733 5.77902 2.66664 5.72143 2.63869L5.09057 2.33256C4.69506 2.14059 4.28321 1.98362 4.17545 1.98362C3.92627 1.98362 3.92253 2.16758 4.14965 3.26053C4.28839 3.92803 4.38175 4.07676 3.98067 4.61049C3.3795 5.41052 3.22933 6.40396 3.55171 7.44774C3.95803 8.76308 4.953 9.65168 6.35182 9.94814C7.19507 10.1269 7.41547 10.3601 7.09347 11.327C6.84 12.0879 6.67973 12.2841 6.31138 12.2841C5.81577 12.2841 5.50531 11.8547 5.67616 11.4055C5.75141 11.2075 5.72903 11.1863 5.26474 11.017C3.84745 10.5003 2.76343 9.34208 2.26781 7.81488C1.88474 6.63457 2.05329 5.09827 2.66783 4.1697C2.87707 3.85353 2.88031 3.82672 2.78267 3.22146C2.72742 2.87882 2.69754 2.32736 2.71627 1.99588Z" fill="#706262"/>
<path d="M2.22135 10.6303C2.01712 10.3239 1.6032 10.2411 1.29685 10.4454C0.990504 10.6496 0.907718 11.0635 1.11195 11.3699C1.26273 11.5961 1.44311 11.7819 1.59629 11.935C1.62453 11.9633 1.65197 11.9905 1.67876 12.0171C1.80708 12.1446 1.92037 12.2571 2.03416 12.3907C2.28583 12.6861 2.5369 13.084 2.6796 13.7975C2.74316 14.1153 2.97159 14.2865 3.09816 14.3613C3.23543 14.4423 3.38541 14.4901 3.50883 14.5213C3.7613 14.5849 4.06779 14.618 4.35866 14.6373C4.67796 14.6585 5.02394 14.6653 5.33332 14.6672C5.33355 15.0351 5.63194 15.3334 5.99998 15.3334C6.36818 15.3334 6.66665 15.0349 6.66665 14.6667V14.0001C6.66665 13.6319 6.36818 13.3334 5.99998 13.3334C5.93714 13.3334 5.86914 13.3336 5.79712 13.3339C5.40588 13.3351 4.89592 13.3366 4.44678 13.3069C4.2302 13.2925 4.05216 13.2722 3.9216 13.2473C3.72055 12.4581 3.39574 11.9329 3.04915 11.5261C2.89594 11.3463 2.73728 11.1889 2.60824 11.0609C2.58408 11.037 2.56096 11.0141 2.5391 10.9922C2.3902 10.8433 2.2928 10.7375 2.22135 10.6303Z" fill="#706262"/>
</svg>
