<svg width="18" height="5" viewBox="0 0 18 5" fill="none" xmlns="http://www.w3.org/2000/svg">
<path d="M2.88 -3.33786e-06H3.852V4.2H2.88V-3.33786e-06ZM0.972001 4.2H8.34465e-07V-3.33786e-06H0.972001V4.2ZM2.952 2.478H0.900001V1.656H2.952V2.478ZM5.7757 4.2V0.791997H4.4317V-3.33786e-06H8.0917V0.791997H6.7477V4.2H5.7757ZM8.67469 4.2V-3.33786e-06H9.47869L11.2667 2.964H10.8407L12.5987 -3.33786e-06H13.3967L13.4087 4.2H12.4967L12.4907 1.398H12.6587L11.2547 3.756H10.8167L9.38269 1.398H9.58669V4.2H8.67469ZM14.4652 4.2V-3.33786e-06H15.4372V3.408H17.5432V4.2H14.4652Z" fill="#F94B54"/>
</svg>
