<svg width="18" height="5" viewBox="0 0 18 5" fill="none" xmlns="http://www.w3.org/2000/svg">
<path d="M-5.84126e-06 4.272V0.0720029H0.971994V4.272H-5.84126e-06ZM2.89874 4.272V0.864003H1.55474V0.0720029H5.21474V0.864003H3.87074V4.272H2.89874ZM7.74913 4.344C7.42513 4.344 7.12313 4.292 6.84313 4.188C6.56713 4.08 6.32713 3.928 6.12313 3.732C5.91913 3.536 5.75913 3.306 5.64313 3.042C5.53113 2.778 5.47513 2.488 5.47513 2.172C5.47513 1.856 5.53113 1.566 5.64313 1.302C5.75913 1.038 5.91913 0.808003 6.12313 0.612003C6.33113 0.416003 6.57313 0.266003 6.84913 0.162003C7.12513 0.054003 7.42713 3.09944e-06 7.75513 3.09944e-06C8.11913 3.09944e-06 8.44713 0.0640031 8.73913 0.192003C9.03513 0.316003 9.28313 0.500003 9.48313 0.744003L8.85913 1.32C8.71513 1.156 8.55513 1.034 8.37913 0.954003C8.20313 0.870003 8.01113 0.828003 7.80313 0.828003C7.60713 0.828003 7.42713 0.860003 7.26313 0.924003C7.09913 0.988003 6.95713 1.08 6.83713 1.2C6.71713 1.32 6.62313 1.462 6.55513 1.626C6.49113 1.79 6.45913 1.972 6.45913 2.172C6.45913 2.372 6.49113 2.554 6.55513 2.718C6.62313 2.882 6.71713 3.024 6.83713 3.144C6.95713 3.264 7.09913 3.356 7.26313 3.42C7.42713 3.484 7.60713 3.516 7.80313 3.516C8.01113 3.516 8.20313 3.476 8.37913 3.396C8.55513 3.312 8.71513 3.186 8.85913 3.018L9.48313 3.594C9.28313 3.838 9.03513 4.024 8.73913 4.152C8.44713 4.28 8.11713 4.344 7.74913 4.344ZM11.5561 4.344C11.2201 4.344 10.8981 4.3 10.5901 4.212C10.2821 4.12 10.0341 4.002 9.84609 3.858L10.1761 3.126C10.3561 3.254 10.5681 3.36 10.8121 3.444C11.0601 3.524 11.3101 3.564 11.5621 3.564C11.7541 3.564 11.9081 3.546 12.0241 3.51C12.1441 3.47 12.2321 3.416 12.2881 3.348C12.3441 3.28 12.3721 3.202 12.3721 3.114C12.3721 3.002 12.3281 2.914 12.2401 2.85C12.1521 2.782 12.0361 2.728 11.8921 2.688C11.7481 2.644 11.5881 2.604 11.4121 2.568C11.2401 2.528 11.0661 2.48 10.8901 2.424C10.7181 2.368 10.5601 2.296 10.4161 2.208C10.2721 2.12 10.1541 2.004 10.0621 1.86C9.97409 1.716 9.93009 1.532 9.93009 1.308C9.93009 1.068 9.99409 0.850003 10.1221 0.654003C10.2541 0.454003 10.4501 0.296003 10.7101 0.180003C10.9741 0.060003 11.3041 3.09944e-06 11.7001 3.09944e-06C11.9641 3.09944e-06 12.2241 0.032003 12.4801 0.0960029C12.7361 0.156003 12.9621 0.248003 13.1581 0.372003L12.8581 1.11C12.6621 0.998003 12.4661 0.916003 12.2701 0.864003C12.0741 0.808003 11.8821 0.780003 11.6941 0.780003C11.5061 0.780003 11.3521 0.802003 11.2321 0.846003C11.1121 0.890003 11.0261 0.948003 10.9741 1.02C10.9221 1.088 10.8961 1.168 10.8961 1.26C10.8961 1.368 10.9401 1.456 11.0281 1.524C11.1161 1.588 11.2321 1.64 11.3761 1.68C11.5201 1.72 11.6781 1.76 11.8501 1.8C12.0261 1.84 12.2001 1.886 12.3721 1.938C12.5481 1.99 12.7081 2.06 12.8521 2.148C12.9961 2.236 13.1121 2.352 13.2001 2.496C13.2921 2.64 13.3381 2.822 13.3381 3.042C13.3381 3.278 13.2721 3.494 13.1401 3.69C13.0081 3.886 12.8101 4.044 12.5461 4.164C12.2861 4.284 11.9561 4.344 11.5561 4.344ZM15.4423 4.344C15.1063 4.344 14.7843 4.3 14.4763 4.212C14.1683 4.12 13.9203 4.002 13.7323 3.858L14.0623 3.126C14.2423 3.254 14.4543 3.36 14.6983 3.444C14.9463 3.524 15.1963 3.564 15.4483 3.564C15.6403 3.564 15.7943 3.546 15.9103 3.51C16.0303 3.47 16.1183 3.416 16.1743 3.348C16.2303 3.28 16.2583 3.202 16.2583 3.114C16.2583 3.002 16.2143 2.914 16.1263 2.85C16.0383 2.782 15.9223 2.728 15.7783 2.688C15.6343 2.644 15.4743 2.604 15.2983 2.568C15.1263 2.528 14.9523 2.48 14.7763 2.424C14.6043 2.368 14.4463 2.296 14.3023 2.208C14.1583 2.12 14.0403 2.004 13.9483 1.86C13.8603 1.716 13.8163 1.532 13.8163 1.308C13.8163 1.068 13.8803 0.850003 14.0083 0.654003C14.1403 0.454003 14.3363 0.296003 14.5963 0.180003C14.8603 0.060003 15.1903 3.09944e-06 15.5863 3.09944e-06C15.8503 3.09944e-06 16.1103 0.032003 16.3663 0.0960029C16.6223 0.156003 16.8483 0.248003 17.0443 0.372003L16.7443 1.11C16.5483 0.998003 16.3523 0.916003 16.1563 0.864003C15.9603 0.808003 15.7683 0.780003 15.5803 0.780003C15.3923 0.780003 15.2383 0.802003 15.1183 0.846003C14.9983 0.890003 14.9123 0.948003 14.8603 1.02C14.8083 1.088 14.7823 1.168 14.7823 1.26C14.7823 1.368 14.8263 1.456 14.9143 1.524C15.0023 1.588 15.1183 1.64 15.2623 1.68C15.4063 1.72 15.5643 1.76 15.7363 1.8C15.9123 1.84 16.0863 1.886 16.2583 1.938C16.4343 1.99 16.5943 2.06 16.7383 2.148C16.8823 2.236 16.9983 2.352 17.0863 2.496C17.1783 2.64 17.2243 2.822 17.2243 3.042C17.2243 3.278 17.1583 3.494 17.0263 3.69C16.8943 3.886 16.6963 4.044 16.4323 4.164C16.1723 4.284 15.8423 4.344 15.4423 4.344Z" fill="#D86A6A"/>
</svg>
