<svg width="16" height="10" viewBox="0 0 16 10" fill="none" xmlns="http://www.w3.org/2000/svg">
<path d="M2.81082 3.56C2.57415 3.56 2.35582 3.51667 2.15582 3.43C1.95915 3.34 1.79749 3.21333 1.67082 3.05L2.12082 2.51C2.21749 2.63667 2.31915 2.73333 2.42582 2.8C2.53249 2.86333 2.64749 2.895 2.77082 2.895C3.10082 2.895 3.26582 2.70167 3.26582 2.315V0.65H2.03582V-2.38419e-07H4.07082V2.27C4.07082 2.70333 3.96415 3.02667 3.75082 3.24C3.53749 3.45333 3.22415 3.56 2.81082 3.56ZM6.5159 3.5V2.975L6.4659 2.86V1.92C6.4659 1.75333 6.41423 1.62333 6.3109 1.53C6.2109 1.43667 6.0559 1.39 5.8459 1.39C5.70257 1.39 5.5609 1.41333 5.4209 1.46C5.28423 1.50333 5.16757 1.56333 5.0709 1.64L4.7909 1.095C4.93757 0.991667 5.11423 0.911667 5.3209 0.855C5.52757 0.798333 5.73757 0.77 5.9509 0.77C6.3609 0.77 6.67923 0.866667 6.9059 1.06C7.13257 1.25333 7.2459 1.555 7.2459 1.965V3.5H6.5159ZM5.6959 3.54C5.4859 3.54 5.3059 3.505 5.1559 3.435C5.0059 3.36167 4.8909 3.26333 4.8109 3.14C4.7309 3.01667 4.6909 2.87833 4.6909 2.725C4.6909 2.565 4.72923 2.425 4.8059 2.305C4.8859 2.185 5.0109 2.09167 5.1809 2.025C5.3509 1.955 5.57257 1.92 5.8459 1.92H6.5609V2.375H5.9309C5.74757 2.375 5.6209 2.405 5.5509 2.465C5.48423 2.525 5.4509 2.6 5.4509 2.69C5.4509 2.79 5.48923 2.87 5.5659 2.93C5.6459 2.98667 5.75423 3.015 5.8909 3.015C6.0209 3.015 6.13757 2.985 6.2409 2.925C6.34423 2.86167 6.41923 2.77 6.4659 2.65L6.5859 3.01C6.52923 3.18333 6.4259 3.315 6.2759 3.405C6.1259 3.495 5.93257 3.54 5.6959 3.54ZM8.68301 3.5L7.55301 0.81H8.35801L9.29801 3.125H8.89801L9.87301 0.81H10.623L9.48801 3.5H8.68301ZM12.5534 3.5V2.975L12.5034 2.86V1.92C12.5034 1.75333 12.4517 1.62333 12.3484 1.53C12.2484 1.43667 12.0934 1.39 11.8834 1.39C11.7401 1.39 11.5984 1.41333 11.4584 1.46C11.3217 1.50333 11.2051 1.56333 11.1084 1.64L10.8284 1.095C10.9751 0.991667 11.1517 0.911667 11.3584 0.855C11.5651 0.798333 11.7751 0.77 11.9884 0.77C12.3984 0.77 12.7167 0.866667 12.9434 1.06C13.1701 1.25333 13.2834 1.555 13.2834 1.965V3.5H12.5534ZM11.7334 3.54C11.5234 3.54 11.3434 3.505 11.1934 3.435C11.0434 3.36167 10.9284 3.26333 10.8484 3.14C10.7684 3.01667 10.7284 2.87833 10.7284 2.725C10.7284 2.565 10.7667 2.425 10.8434 2.305C10.9234 2.185 11.0484 2.09167 11.2184 2.025C11.3884 1.955 11.6101 1.92 11.8834 1.92H12.5984V2.375H11.9684C11.7851 2.375 11.6584 2.405 11.5884 2.465C11.5217 2.525 11.4884 2.6 11.4884 2.69C11.4884 2.79 11.5267 2.87 11.6034 2.93C11.6834 2.98667 11.7917 3.015 11.9284 3.015C12.0584 3.015 12.1751 2.985 12.2784 2.925C12.3817 2.86167 12.4567 2.77 12.5034 2.65L12.6234 3.01C12.5667 3.18333 12.4634 3.315 12.3134 3.405C12.1634 3.495 11.9701 3.54 11.7334 3.54ZM1.425 8.56C1.145 8.56 0.876667 8.52333 0.620001 8.45C0.363334 8.37333 0.156667 8.275 6.14673e-07 8.155L0.275001 7.545C0.425001 7.65167 0.601667 7.74 0.805001 7.81C1.01167 7.87667 1.22 7.91 1.43 7.91C1.59 7.91 1.71833 7.895 1.815 7.865C1.915 7.83167 1.98833 7.78667 2.035 7.73C2.08167 7.67333 2.105 7.60833 2.105 7.535C2.105 7.44167 2.06833 7.36833 1.995 7.315C1.92167 7.25833 1.825 7.21333 1.705 7.18C1.585 7.14333 1.45167 7.11 1.305 7.08C1.16167 7.04667 1.01667 7.00667 0.870001 6.96C0.726667 6.91333 0.595001 6.85333 0.475001 6.78C0.355001 6.70667 0.256667 6.61 0.180001 6.49C0.106667 6.37 0.0700006 6.21667 0.0700006 6.03C0.0700006 5.83 0.123334 5.64833 0.230001 5.485C0.340001 5.31833 0.503334 5.18667 0.720001 5.09C0.940001 4.99 1.215 4.94 1.545 4.94C1.765 4.94 1.98167 4.96667 2.195 5.02C2.40833 5.07 2.59667 5.14667 2.76 5.25L2.51 5.865C2.34667 5.77167 2.18333 5.70333 2.02 5.66C1.85667 5.61333 1.69667 5.59 1.54 5.59C1.38333 5.59 1.255 5.60833 1.155 5.645C1.055 5.68167 0.983334 5.73 0.940001 5.79C0.896667 5.84667 0.875001 5.91333 0.875001 5.99C0.875001 6.08 0.911667 6.15333 0.985001 6.21C1.05833 6.26333 1.155 6.30667 1.275 6.34C1.395 6.37333 1.52667 6.40667 1.67 6.44C1.81667 6.47333 1.96167 6.51167 2.105 6.555C2.25167 6.59833 2.385 6.65667 2.505 6.73C2.625 6.80333 2.72167 6.9 2.795 7.02C2.87167 7.14 2.91 7.29167 2.91 7.475C2.91 7.67167 2.855 7.85167 2.745 8.015C2.635 8.17833 2.47 8.31 2.25 8.41C2.03333 8.51 1.75833 8.56 1.425 8.56ZM4.75848 8.54C4.46848 8.54 4.21014 8.48167 3.98348 8.365C3.75681 8.245 3.57848 8.08 3.44848 7.87C3.32181 7.66 3.25848 7.42167 3.25848 7.155C3.25848 6.885 3.32181 6.64667 3.44848 6.44C3.57848 6.23 3.75681 6.06667 3.98348 5.95C4.21014 5.83 4.46848 5.77 4.75848 5.77C5.04181 5.77 5.28848 5.83 5.49848 5.95C5.70848 6.06667 5.86348 6.235 5.96348 6.455L5.35848 6.78C5.28848 6.65333 5.20014 6.56 5.09348 6.5C4.99014 6.44 4.87681 6.41 4.75348 6.41C4.62014 6.41 4.50014 6.44 4.39348 6.5C4.28681 6.56 4.20181 6.645 4.13848 6.755C4.07848 6.865 4.04848 6.99833 4.04848 7.155C4.04848 7.31167 4.07848 7.445 4.13848 7.555C4.20181 7.665 4.28681 7.75 4.39348 7.81C4.50014 7.87 4.62014 7.9 4.75348 7.9C4.87681 7.9 4.99014 7.87167 5.09348 7.815C5.20014 7.755 5.28848 7.66 5.35848 7.53L5.96348 7.86C5.86348 8.07667 5.70848 8.245 5.49848 8.365C5.28848 8.48167 5.04181 8.54 4.75848 8.54ZM6.46258 8.5V5.81H7.20758V6.57L7.10258 6.35C7.18258 6.16 7.31091 6.01667 7.48758 5.92C7.66425 5.82 7.87925 5.77 8.13258 5.77V6.49C8.09925 6.48667 8.06925 6.485 8.04258 6.485C8.01591 6.48167 7.98758 6.48 7.95758 6.48C7.74425 6.48 7.57091 6.54167 7.43758 6.665C7.30758 6.785 7.24258 6.97333 7.24258 7.23V8.5H6.46258ZM8.65125 8.5V5.81H9.43125V8.5H8.65125ZM9.04125 5.435C8.89792 5.435 8.78125 5.39333 8.69125 5.31C8.60125 5.22667 8.55625 5.12333 8.55625 5C8.55625 4.87667 8.60125 4.77333 8.69125 4.69C8.78125 4.60667 8.89792 4.565 9.04125 4.565C9.18458 4.565 9.30125 4.605 9.39125 4.685C9.48125 4.76167 9.52625 4.86167 9.52625 4.985C9.52625 5.115 9.48125 5.22333 9.39125 5.31C9.30458 5.39333 9.18792 5.435 9.04125 5.435ZM11.7952 8.54C11.5685 8.54 11.3702 8.49 11.2002 8.39C11.0302 8.29 10.8968 8.13833 10.8002 7.935C10.7068 7.72833 10.6602 7.46833 10.6602 7.155C10.6602 6.83833 10.7052 6.57833 10.7952 6.375C10.8852 6.17167 11.0152 6.02 11.1852 5.92C11.3552 5.82 11.5585 5.77 11.7952 5.77C12.0485 5.77 12.2752 5.82833 12.4752 5.945C12.6785 6.05833 12.8385 6.21833 12.9552 6.425C13.0752 6.63167 13.1352 6.875 13.1352 7.155C13.1352 7.43833 13.0752 7.68333 12.9552 7.89C12.8385 8.09667 12.6785 8.25667 12.4752 8.37C12.2752 8.48333 12.0485 8.54 11.7952 8.54ZM10.2052 9.47V5.81H10.9502V6.36L10.9352 7.16L10.9852 7.955V9.47H10.2052ZM11.6602 7.9C11.7902 7.9 11.9052 7.87 12.0052 7.81C12.1085 7.75 12.1902 7.665 12.2502 7.555C12.3135 7.44167 12.3452 7.30833 12.3452 7.155C12.3452 6.99833 12.3135 6.865 12.2502 6.755C12.1902 6.645 12.1085 6.56 12.0052 6.5C11.9052 6.44 11.7902 6.41 11.6602 6.41C11.5302 6.41 11.4135 6.44 11.3102 6.5C11.2068 6.56 11.1252 6.645 11.0652 6.755C11.0052 6.865 10.9752 6.99833 10.9752 7.155C10.9752 7.30833 11.0052 7.44167 11.0652 7.555C11.1252 7.665 11.2068 7.75 11.3102 7.81C11.4135 7.87 11.5302 7.9 11.6602 7.9ZM14.8073 8.54C14.4906 8.54 14.244 8.46 14.0673 8.3C13.8906 8.13667 13.8023 7.895 13.8023 7.575V5.215H14.5823V7.565C14.5823 7.67833 14.6123 7.76667 14.6723 7.83C14.7323 7.89 14.814 7.92 14.9173 7.92C15.0406 7.92 15.1456 7.88667 15.2323 7.82L15.4423 8.37C15.3623 8.42667 15.2656 8.47 15.1523 8.5C15.0423 8.52667 14.9273 8.54 14.8073 8.54ZM13.3873 6.47V5.87H15.2523V6.47H13.3873Z" fill="#FFBA2B"/>
</svg>
