<svg width="16" height="16" viewBox="0 0 16 16" fill="none" xmlns="http://www.w3.org/2000/svg">
<path d="M8.53333 14.4C8.53333 14.5414 8.47714 14.6771 8.37712 14.7771C8.2771 14.8771 8.14145 14.9333 8 14.9333C7.85855 14.9333 7.72289 14.8771 7.62287 14.7771C7.52285 14.6771 7.46666 14.5414 7.46666 14.4C7.46666 14.2586 7.52285 14.1229 7.62287 14.0229C7.72289 13.9229 7.85855 13.8667 8 13.8667C8.14145 13.8667 8.2771 13.9229 8.37712 14.0229C8.47714 14.1229 8.53333 14.2586 8.53333 14.4ZM7.2 1.06667H8.8C8.94773 1.06667 9.06666 1.1856 9.06666 1.33333C9.06666 1.48107 8.94773 1.6 8.8 1.6H7.2C7.05226 1.6 6.93333 1.48107 6.93333 1.33333C6.93333 1.1856 7.05226 1.06667 7.2 1.06667ZM4 0C3.5616 0 3.2 0.3616 3.2 0.8V15.2C3.2 15.6384 3.5616 16 4 16H12C12.4384 16 12.8 15.6384 12.8 15.2V0.8C12.8 0.3616 12.4384 0 12 0H4ZM4 0.533333H12C12.1525 0.533333 12.2667 0.647467 12.2667 0.8V15.2C12.2667 15.3525 12.1525 15.4667 12 15.4667H4C3.84746 15.4667 3.73333 15.3525 3.73333 15.2V0.8C3.73333 0.647467 3.84746 0.533333 4 0.533333Z" fill="#ED8585"/>
</svg>
