<svg width="15" height="15" viewBox="0 0 15 15" fill="none" xmlns="http://www.w3.org/2000/svg">
<path d="M7.6436 14.9722C7.43728 14.9722 7.24471 14.9171 7.06589 14.8209L5.2365 13.7342C4.9614 13.5829 5.09895 13.5279 5.18148 13.5004C5.55286 13.3766 5.62163 13.3491 6.00677 13.129C6.04803 13.1015 6.10305 13.1153 6.14432 13.1428L7.54731 13.9818C7.60233 14.0093 7.67111 14.0093 7.71237 13.9818L13.2006 10.8044C13.2556 10.7769 13.2831 10.7219 13.2831 10.6531V4.31215C13.2831 4.24337 13.2556 4.18836 13.2006 4.16085L7.71237 0.997227C7.65735 0.969718 7.58858 0.969718 7.54731 0.997227L2.05912 4.16085C2.0041 4.18836 1.9766 4.25713 1.9766 4.31215V10.6531C1.9766 10.7082 2.0041 10.7769 2.05912 10.8044L3.5584 11.671C4.36994 12.0836 4.87887 11.6022 4.87887 11.1208V4.86234C4.87887 4.77981 4.94765 4.69729 5.04393 4.69729H5.74543C5.82796 4.69729 5.91049 4.76606 5.91049 4.86234V11.1208C5.91049 12.2074 5.31903 12.8402 4.28741 12.8402C3.97105 12.8402 3.72346 12.8402 3.02196 12.4963L1.5777 11.671C1.22008 11.4647 1 11.0795 1 10.6669V4.3259C1 3.91326 1.22008 3.52812 1.5777 3.3218L7.06589 0.144426C7.40977 -0.048142 7.87743 -0.048142 8.2213 0.144426L13.7095 3.3218C14.0671 3.52812 14.2872 3.91326 14.2872 4.3259V10.6669C14.2872 11.0795 14.0671 11.4647 13.7095 11.671L8.2213 14.8484C8.04249 14.9309 7.83617 14.9722 7.6436 14.9722ZM9.33545 10.6119C6.92835 10.6119 6.43317 9.51149 6.43317 8.57616C6.43317 8.49363 6.50195 8.4111 6.59823 8.4111H7.31348C7.39601 8.4111 7.46479 8.46612 7.46479 8.54865C7.57482 9.27765 7.89119 9.63528 9.3492 9.63528C10.5046 9.63528 10.9998 9.37394 10.9998 8.75497C10.9998 8.39734 10.8622 8.136 9.06035 7.95719C7.56107 7.80588 6.62574 7.47577 6.62574 6.27909C6.62574 5.16495 7.56107 4.50472 9.12912 4.50472C10.8897 4.50472 11.7563 5.10993 11.8663 6.4304C11.8663 6.47166 11.8526 6.51293 11.8251 6.55419C11.7976 6.5817 11.7563 6.60921 11.715 6.60921H10.9998C10.931 6.60921 10.8622 6.55419 10.8485 6.48542C10.6834 5.7289 10.257 5.48131 9.12912 5.48131C7.86368 5.48131 7.71237 5.92147 7.71237 6.25158C7.71237 6.65048 7.89119 6.77427 9.59679 6.99435C11.2886 7.21442 12.0864 7.53079 12.0864 8.71371C12.0727 9.92413 11.0823 10.6119 9.33545 10.6119Z" fill="#7EBF7A"/>
</svg>
