<svg width="16" height="16" viewBox="0 0 16 16" fill="none" xmlns="http://www.w3.org/2000/svg">
<g clip-path="url(#clip0_25_146)">
<path d="M1.25 16H7C7.138 16 7.25 15.888 7.25 15.75C7.25 15.612 7.138 15.5 7 15.5H1.25C1.112 15.5 1 15.388 1 15.25V0.75C1 0.612 1.112 0.5 1.25 0.5H11.25C11.388 0.5 11.5 0.612 11.5 0.75V2.5C11.5 2.638 11.612 2.75 11.75 2.75C11.888 2.75 12 2.638 12 2.5V0.75C12 0.3365 11.6635 0 11.25 0H1.25C0.8365 0 0.5 0.3365 0.5 0.75V15.25C0.5 15.6635 0.8365 16 1.25 16Z" fill="#D3472A"/>
<path d="M5.5 2C5.362 2 5.25 2.112 5.25 2.25C5.25 2.388 5.362 2.5 5.5 2.5H7C7.138 2.5 7.25 2.388 7.25 2.25C7.25 2.112 7.138 2 7 2H5.5Z" fill="#D3472A"/>
<path d="M8 4.25V15.25C8 15.6635 8.3365 16 8.75 16H14.75C15.1635 16 15.5 15.6635 15.5 15.25V4.25C15.5 3.8365 15.1635 3.5 14.75 3.5H8.75C8.3365 3.5 8 3.8365 8 4.25ZM15 4.25V15.25C15 15.388 14.888 15.5 14.75 15.5H8.75C8.612 15.5 8.5 15.388 8.5 15.25V4.25C8.5 4.112 8.612 4 8.75 4H14.75C14.888 4 15 4.112 15 4.25Z" fill="#D3472A"/>
<path d="M11.6505 12.825C11.185 12.825 10.8065 13.2035 10.8065 13.669C10.8065 14.1345 11.185 14.513 11.6505 14.513C12.116 14.513 12.4945 14.1345 12.4945 13.669C12.4945 13.2035 12.1155 12.825 11.6505 12.825ZM11.6505 14.013C11.461 14.013 11.3065 13.8585 11.3065 13.669C11.3065 13.4795 11.461 13.325 11.6505 13.325C11.84 13.325 11.9945 13.4795 11.9945 13.669C11.9945 13.8585 11.84 14.013 11.6505 14.013Z" fill="#D3472A"/>
<path d="M11 5.5H12.5C12.638 5.5 12.75 5.388 12.75 5.25C12.75 5.112 12.638 5 12.5 5H11C10.862 5 10.75 5.112 10.75 5.25C10.75 5.388 10.862 5.5 11 5.5Z" fill="#D3472A"/>
</g>
<defs>
<clipPath id="clip0_25_146">
<rect width="16" height="16" fill="white"/>
</clipPath>
</defs>
</svg>
