<svg width="16" height="16" viewBox="0 0 16 16" fill="none" xmlns="http://www.w3.org/2000/svg">
<path d="M15.8205 10.5805C15.766 10.125 15.5315 9.77149 15.1775 9.49449C14.7675 9.17399 14.2875 9.04199 13.776 9.02099C13.359 9.00399 12.951 9.06598 12.5575 9.20898C12.4455 9.24948 12.3355 9.29749 12.2225 9.34299C12.2075 9.31549 12.1915 9.28949 12.1785 9.26199C12.0625 9.02499 11.9225 8.79849 11.892 8.52699C11.87 8.33399 11.843 8.14099 11.889 7.95049C11.933 7.76699 11.991 7.58649 12.045 7.40499C12.073 7.31149 12.0535 7.25949 11.9645 7.21749C11.9335 7.20299 11.9 7.18999 11.866 7.18499C11.647 7.15349 11.4315 7.17149 11.2195 7.23299C11.1445 7.25499 11.09 7.29699 11.0735 7.37999C11.064 7.42749 11.0445 7.47299 11.0315 7.51999C10.976 7.71549 10.937 7.91449 10.8475 8.10049C10.623 8.56749 10.3675 9.01648 10.105 9.46248C10.0765 9.51048 10.047 9.55799 10.011 9.61649C9.919 9.42399 9.821 9.25149 9.791 9.04849C9.7575 8.81949 9.731 8.59098 9.788 8.36348C9.8305 8.19398 9.886 8.02749 9.937 7.86049C9.9615 7.78099 9.95 7.73949 9.878 7.69749C9.8415 7.67649 9.8005 7.65749 9.7595 7.65149C9.5325 7.61799 9.309 7.63549 9.0905 7.70649C9.0225 7.72849 8.987 7.77249 8.966 7.84249C8.905 8.04899 8.853 8.26048 8.7675 8.45698C8.4205 9.25199 8.064 10.043 7.7075 10.8335C7.633 10.9985 7.546 11.158 7.462 11.3185C7.4405 11.3595 7.41 11.395 7.3835 11.4335C7.362 11.4085 7.354 11.391 7.354 11.374C7.3545 11.2725 7.3425 11.1675 7.362 11.0695C7.4205 10.7725 7.488 10.4765 7.5595 10.182C7.618 9.93899 7.6865 9.69799 7.752 9.45599C7.774 9.37499 7.7745 9.29948 7.716 9.23148C7.6185 9.11748 7.4145 9.09249 7.2935 9.18049C7.2805 9.18999 7.265 9.19649 7.24 9.21099C7.2445 9.17249 7.247 9.14849 7.2505 9.12449C7.276 8.93949 7.281 8.75549 7.2305 8.57299C7.167 8.34599 7.0055 8.21549 6.77 8.22249C6.66 8.22599 6.545 8.24449 6.4435 8.28449C6.016 8.45199 5.6875 8.74849 5.408 9.10549C5.3825 9.13799 5.349 9.16749 5.3135 9.18699C4.952 9.38749 4.589 9.58549 4.2265 9.78449C4.091 9.85849 3.9555 9.93299 3.823 10.0055C3.715 9.90199 3.6165 9.79499 3.5045 9.70399C3.1635 9.42599 2.817 9.15499 2.474 8.87999C2.17 8.63649 1.875 8.38249 1.6495 8.05999C1.4815 7.81999 1.3735 7.55749 1.3635 7.26049C1.3505 6.88249 1.4575 6.53699 1.65 6.21499C1.8965 5.80349 2.232 5.47348 2.6015 5.17399C2.992 4.85748 3.4145 4.58899 3.8525 4.34399C4.465 4.00099 5.0955 3.69749 5.771 3.49699C6.464 3.29149 7.1665 3.17399 7.8915 3.25599C8.1765 3.28799 8.453 3.35349 8.7075 3.49299C8.902 3.59949 9.0615 3.73899 9.136 3.95749C9.209 4.17249 9.207 4.38999 9.156 4.60799C9.053 5.04949 8.811 5.41399 8.5065 5.73949C8.0075 6.27299 7.3985 6.63599 6.7125 6.87599C6.317 7.01449 5.91 7.10149 5.492 7.13649C5.151 7.16499 4.817 7.13499 4.494 7.01599C4.28 6.93749 4.094 6.81699 3.944 6.64249C3.917 6.61099 3.883 6.57749 3.833 6.60649C3.784 6.63499 3.7755 6.68199 3.792 6.72899C3.8195 6.80749 3.8445 6.88849 3.8875 6.95849C3.9945 7.13399 4.151 7.26149 4.323 7.37099C4.6535 7.58099 5.0225 7.65149 5.4055 7.66799C5.9865 7.69299 6.5535 7.60649 7.112 7.45049C7.91 7.22799 8.6035 6.83499 9.16 6.21499C9.6235 5.69899 9.954 5.11599 10.025 4.41249C10.0595 4.06899 10.023 3.73249 9.862 3.41949C9.6875 3.07999 9.4105 2.84599 9.079 2.67249C8.597 2.41949 8.076 2.31999 7.5385 2.29099C7.359 2.29099 7.1795 2.29099 7 2.29099C6.3485 2.32249 5.719 2.45949 5.107 2.68199C4.644 2.85049 4.1895 3.04049 3.7485 3.26049C2.788 3.74049 1.8935 4.31449 1.159 5.10999C0.793 5.50649 0.483 5.94149 0.305 6.45649C0.253 6.60749 0.221 6.76749 0.1835 6.92349C0.1805 6.93649 0.195 6.94899 0.163 6.96199C0.163 7.03549 0.163 7.10849 0.163 7.18199C0.195 7.23849 0.1985 7.29449 0.213 7.35099C0.3075 7.71749 0.502 8.03249 0.743 8.31949C1.0865 8.72849 1.502 9.05749 1.933 9.36749C2.3065 9.63599 2.6855 9.89849 3.0605 10.165C3.125 10.2105 3.1845 10.2635 3.2545 10.3195C3.1945 10.352 3.144 10.3805 3.092 10.407C2.597 10.658 2.121 10.9395 1.682 11.2805C1.4175 11.486 1.1615 11.7045 0.981 11.9895C0.6905 12.4485 0.5875 12.9375 0.804 13.4595C0.8675 13.612 0.964 13.744 1.1 13.841C1.144 13.8725 1.1935 13.904 1.245 13.916C1.377 13.947 1.512 13.9675 1.646 13.992C1.7725 13.992 1.8985 13.992 2.025 13.992C2.4445 13.9545 2.826 13.811 3.1705 13.573C3.7095 13.201 4.0725 12.7025 4.229 12.062C4.3425 11.597 4.347 11.131 4.2135 10.668C4.201 10.625 4.1855 10.583 4.169 10.5415C4.1525 10.5 4.1335 10.4595 4.111 10.4075C4.397 10.243 4.684 10.078 4.9705 9.91299C4.975 9.91649 4.979 9.92049 4.9835 9.92399C4.968 9.97499 4.9515 10.026 4.937 10.078C4.835 10.451 4.767 10.8305 4.7915 11.2175C4.8175 11.63 4.9325 12.016 5.174 12.361C5.369 12.64 5.8345 12.65 6.042 12.3705C6.1155 12.271 6.187 12.1675 6.2405 12.0565C6.3805 11.767 6.5105 11.4725 6.644 11.18C6.65 11.1675 6.655 11.155 6.6675 11.1265C6.658 11.265 6.6465 11.3865 6.6415 11.5085C6.6335 11.6985 6.6445 11.8875 6.7095 12.0685C6.765 12.2235 6.8595 12.339 7.037 12.359C7.158 12.373 7.255 12.3175 7.344 12.247C7.4835 12.137 7.5965 12.0015 7.6805 11.847C7.918 11.4105 8.162 10.977 8.3775 10.5295C8.6105 10.0455 8.814 9.54749 9.0305 9.05549C9.0425 9.02849 9.053 9.00099 9.0665 8.96799C9.1175 9.16899 9.1535 9.36549 9.219 9.55199C9.295 9.76799 9.3895 9.97899 9.4925 10.184C9.541 10.281 9.5355 10.344 9.468 10.425C9.186 10.765 8.909 11.109 8.6315 11.453C8.57 11.529 8.509 11.606 8.458 11.689C8.427 11.7395 8.4065 11.8005 8.398 11.8595C8.3815 11.972 8.4505 12.08 8.571 12.106C8.6805 12.1295 8.7975 12.1385 8.9095 12.13C9.2965 12.1015 9.648 11.9655 9.959 11.7355C10.3615 11.437 10.491 11.0305 10.3935 10.548C10.367 10.417 10.3205 10.2895 10.275 10.1635C10.2545 10.1065 10.2535 10.0665 10.2905 10.0135C10.6125 9.55399 10.8875 9.06599 11.143 8.56749C11.153 8.54799 11.1635 8.52799 11.181 8.50699C11.264 8.93849 11.3885 9.35399 11.612 9.73099C11.498 9.84099 11.385 9.94049 11.283 10.0505C11.058 10.292 10.863 10.555 10.7615 10.875C10.718 11.013 10.684 11.153 10.7035 11.301C10.734 11.53 10.9215 11.6785 11.1465 11.6265C11.628 11.515 12.044 11.288 12.348 10.886C12.5525 10.6155 12.571 10.3135 12.4855 9.99698C12.462 9.91098 12.434 9.82649 12.404 9.72749C12.523 9.69049 12.639 9.64649 12.7585 9.61899C13.381 9.47699 13.9965 9.50198 14.596 9.72648C14.946 9.85748 15.229 10.0775 15.3965 10.423C15.6015 10.8455 15.488 11.246 15.09 11.513C15.053 11.538 15.0105 11.5575 14.9795 11.5885C14.9605 11.6075 14.9495 11.646 14.954 11.672C14.9565 11.6875 14.9975 11.7065 15.0205 11.7065C15.1515 11.7055 15.2575 11.637 15.3595 11.5665C15.615 11.39 15.7835 11.152 15.8235 10.8395C15.8245 10.8305 15.8115 10.822 15.8435 10.8135C15.8435 10.744 15.8435 10.675 15.8435 10.6055C15.8115 10.597 15.825 10.5885 15.824 10.5795L15.8205 10.5805ZM3.643 11.4255C3.6015 11.983 3.349 12.435 2.936 12.8005C2.7035 13.0065 2.4375 13.153 2.127 13.2045C2.0145 13.223 1.8995 13.2275 1.79 13.181C1.6345 13.1145 1.5995 12.9765 1.5965 12.829C1.592 12.5945 1.674 12.3825 1.7865 12.181C1.9335 11.918 2.149 11.7175 2.379 11.5305C2.7415 11.2355 3.135 10.9855 3.5375 10.75C3.544 10.746 3.552 10.744 3.568 10.7375C3.63 10.9675 3.66 11.1945 3.6425 11.426L3.643 11.4255ZM6.788 9.00299C6.7585 9.18099 6.722 9.35899 6.67 9.53149C6.49 10.1285 6.2595 10.7075 6.01 11.278C5.964 11.3835 5.897 11.48 5.8385 11.58C5.8295 11.5955 5.816 11.609 5.803 11.622C5.731 11.6935 5.662 11.6895 5.6255 11.596C5.583 11.4875 5.557 11.3715 5.5345 11.2565C5.5195 11.1795 5.523 11.0985 5.5185 11.0195C5.5235 10.458 5.6945 9.94699 5.9855 9.47199C6.1055 9.27599 6.236 9.08949 6.435 8.96499C6.4965 8.92699 6.565 8.89649 6.6345 8.87649C6.7405 8.84649 6.806 8.89598 6.7885 9.00248L6.788 9.00299ZM8.9335 11.7365C9.1905 11.4365 9.447 11.137 9.7045 10.836C9.7365 11.1705 9.1685 11.838 8.9335 11.7365ZM11.3965 11.131C11.342 11.162 11.2825 11.185 11.2265 11.2135C11.1755 11.24 11.1585 11.2135 11.157 11.1695C11.156 11.1395 11.1605 11.1085 11.1685 11.0795C11.2725 10.712 11.464 10.399 11.7495 10.144C11.7535 10.14 11.76 10.1385 11.7695 10.1335C11.905 10.5125 11.749 10.9295 11.3965 11.131Z" fill="#FB7575"/>
</svg>
