<svg width="16" height="16" viewBox="0 0 16 16" fill="none" xmlns="http://www.w3.org/2000/svg">
<path fill-rule="evenodd" clip-rule="evenodd" d="M10.8834 9.93262L14.4697 13.519C14.7323 13.7815 14.7323 14.2072 14.4697 14.4698C14.2072 14.7323 13.7815 14.7323 13.519 14.4698L9.93261 10.8834C9.03021 11.5833 7.8971 12 6.66666 12C3.72114 12 1.33333 9.6122 1.33333 6.66668C1.33333 3.72116 3.72114 1.33334 6.66666 1.33334C9.61218 1.33334 12 3.72116 12 6.66668C12 7.89711 11.5833 9.03023 10.8834 9.93262ZM6.66666 10.6667C8.8758 10.6667 10.6667 8.87582 10.6667 6.66668C10.6667 4.45754 8.8758 2.66668 6.66666 2.66668C4.45752 2.66668 2.66666 4.45754 2.66666 6.66668C2.66666 8.87582 4.45752 10.6667 6.66666 10.6667Z" fill="#E36E6E"/>
</svg>
