<svg width="15" height="11" viewBox="0 0 15 11" fill="none" xmlns="http://www.w3.org/2000/svg">
<path d="M1.71 4.344C1.374 4.344 1.052 4.3 0.743998 4.212C0.435998 4.12 0.187998 4.002 -1.64658e-06 3.858L0.329998 3.126C0.509998 3.254 0.721998 3.36 0.965998 3.444C1.214 3.524 1.464 3.564 1.716 3.564C1.908 3.564 2.062 3.546 2.178 3.51C2.298 3.47 2.386 3.416 2.442 3.348C2.498 3.28 2.526 3.202 2.526 3.114C2.526 3.002 2.482 2.914 2.394 2.85C2.306 2.782 2.19 2.728 2.046 2.688C1.902 2.644 1.742 2.604 1.566 2.568C1.394 2.528 1.22 2.48 1.044 2.424C0.871998 2.368 0.713998 2.296 0.569998 2.208C0.425998 2.12 0.307998 2.004 0.215998 1.86C0.127998 1.716 0.0839984 1.532 0.0839984 1.308C0.0839984 1.068 0.147998 0.850003 0.275998 0.654003C0.407998 0.454003 0.603998 0.296003 0.863998 0.180003C1.128 0.060003 1.458 3.09944e-06 1.854 3.09944e-06C2.118 3.09944e-06 2.378 0.032003 2.634 0.0960029C2.89 0.156003 3.116 0.248003 3.312 0.372003L3.012 1.11C2.816 0.998003 2.62 0.916003 2.424 0.864003C2.228 0.808003 2.036 0.780003 1.848 0.780003C1.66 0.780003 1.506 0.802003 1.386 0.846003C1.266 0.890003 1.18 0.948003 1.128 1.02C1.076 1.088 1.05 1.168 1.05 1.26C1.05 1.368 1.094 1.456 1.182 1.524C1.27 1.588 1.386 1.64 1.53 1.68C1.674 1.72 1.832 1.76 2.004 1.8C2.18 1.84 2.354 1.886 2.526 1.938C2.702 1.99 2.862 2.06 3.006 2.148C3.15 2.236 3.266 2.352 3.354 2.496C3.446 2.64 3.492 2.822 3.492 3.042C3.492 3.278 3.426 3.494 3.294 3.69C3.162 3.886 2.964 4.044 2.7 4.164C2.44 4.284 2.11 4.344 1.71 4.344ZM4.21617 4.272V0.0720029H5.02017L6.80817 3.036H6.38217L8.14017 0.0720029H8.93817L8.95017 4.272H8.03817L8.03217 1.47H8.20017L6.79617 3.828H6.35817L4.92417 1.47H5.12817V4.272H4.21617ZM9.45464 4.272L11.3266 0.0720029H12.2866L14.1646 4.272H13.1446L11.6086 0.564003H11.9926L10.4506 4.272H9.45464ZM10.3906 3.372L10.6486 2.634H12.8086L13.0726 3.372H10.3906ZM3.37125 10.344C3.04725 10.344 2.74525 10.292 2.46525 10.188C2.18925 10.08 1.94925 9.928 1.74525 9.732C1.54125 9.536 1.38125 9.306 1.26525 9.042C1.15325 8.778 1.09725 8.488 1.09725 8.172C1.09725 7.856 1.15325 7.566 1.26525 7.302C1.38125 7.038 1.54125 6.808 1.74525 6.612C1.95325 6.416 2.19525 6.266 2.47125 6.162C2.74725 6.054 3.04925 6 3.37725 6C3.74125 6 4.06925 6.064 4.36125 6.192C4.65725 6.316 4.90525 6.5 5.10525 6.744L4.48125 7.32C4.33725 7.156 4.17725 7.034 4.00125 6.954C3.82525 6.87 3.63325 6.828 3.42525 6.828C3.22925 6.828 3.04925 6.86 2.88525 6.924C2.72125 6.988 2.57925 7.08 2.45925 7.2C2.33925 7.32 2.24525 7.462 2.17725 7.626C2.11325 7.79 2.08125 7.972 2.08125 8.172C2.08125 8.372 2.11325 8.554 2.17725 8.718C2.24525 8.882 2.33925 9.024 2.45925 9.144C2.57925 9.264 2.72125 9.356 2.88525 9.42C3.04925 9.484 3.22925 9.516 3.42525 9.516C3.63325 9.516 3.82525 9.476 4.00125 9.396C4.17725 9.312 4.33725 9.186 4.48125 9.018L5.10525 9.594C4.90525 9.838 4.65725 10.024 4.36125 10.152C4.06925 10.28 3.73925 10.344 3.37125 10.344ZM7.1782 10.344C6.8422 10.344 6.5202 10.3 6.2122 10.212C5.9042 10.12 5.6562 10.002 5.4682 9.858L5.7982 9.126C5.9782 9.254 6.1902 9.36 6.4342 9.444C6.6822 9.524 6.9322 9.564 7.1842 9.564C7.3762 9.564 7.5302 9.546 7.6462 9.51C7.7662 9.47 7.8542 9.416 7.9102 9.348C7.9662 9.28 7.9942 9.202 7.9942 9.114C7.9942 9.002 7.9502 8.914 7.8622 8.85C7.7742 8.782 7.6582 8.728 7.5142 8.688C7.3702 8.644 7.2102 8.604 7.0342 8.568C6.8622 8.528 6.6882 8.48 6.5122 8.424C6.3402 8.368 6.1822 8.296 6.0382 8.208C5.8942 8.12 5.7762 8.004 5.6842 7.86C5.5962 7.716 5.5522 7.532 5.5522 7.308C5.5522 7.068 5.6162 6.85 5.7442 6.654C5.8762 6.454 6.0722 6.296 6.3322 6.18C6.5962 6.06 6.9262 6 7.3222 6C7.5862 6 7.8462 6.032 8.1022 6.096C8.3582 6.156 8.5842 6.248 8.7802 6.372L8.4802 7.11C8.2842 6.998 8.0882 6.916 7.8922 6.864C7.6962 6.808 7.5042 6.78 7.3162 6.78C7.1282 6.78 6.9742 6.802 6.8542 6.846C6.7342 6.89 6.6482 6.948 6.5962 7.02C6.5442 7.088 6.5182 7.168 6.5182 7.26C6.5182 7.368 6.5622 7.456 6.6502 7.524C6.7382 7.588 6.8542 7.64 6.9982 7.68C7.1422 7.72 7.3002 7.76 7.4722 7.8C7.6482 7.84 7.8222 7.886 7.9942 7.938C8.1702 7.99 8.3302 8.06 8.4742 8.148C8.6182 8.236 8.7342 8.352 8.8222 8.496C8.9142 8.64 8.9602 8.822 8.9602 9.042C8.9602 9.278 8.8942 9.494 8.7622 9.69C8.6302 9.886 8.4322 10.044 8.1682 10.164C7.9082 10.284 7.5782 10.344 7.1782 10.344ZM11.0644 10.344C10.7284 10.344 10.4064 10.3 10.0984 10.212C9.79037 10.12 9.54237 10.002 9.35437 9.858L9.68437 9.126C9.86437 9.254 10.0764 9.36 10.3204 9.444C10.5684 9.524 10.8184 9.564 11.0704 9.564C11.2624 9.564 11.4164 9.546 11.5324 9.51C11.6524 9.47 11.7404 9.416 11.7964 9.348C11.8524 9.28 11.8804 9.202 11.8804 9.114C11.8804 9.002 11.8364 8.914 11.7484 8.85C11.6604 8.782 11.5444 8.728 11.4004 8.688C11.2564 8.644 11.0964 8.604 10.9204 8.568C10.7484 8.528 10.5744 8.48 10.3984 8.424C10.2264 8.368 10.0684 8.296 9.92437 8.208C9.78037 8.12 9.66237 8.004 9.57037 7.86C9.48237 7.716 9.43837 7.532 9.43837 7.308C9.43837 7.068 9.50237 6.85 9.63037 6.654C9.76237 6.454 9.95837 6.296 10.2184 6.18C10.4824 6.06 10.8124 6 11.2084 6C11.4724 6 11.7324 6.032 11.9884 6.096C12.2444 6.156 12.4704 6.248 12.6664 6.372L12.3664 7.11C12.1704 6.998 11.9744 6.916 11.7784 6.864C11.5824 6.808 11.3904 6.78 11.2024 6.78C11.0144 6.78 10.8604 6.802 10.7404 6.846C10.6204 6.89 10.5344 6.948 10.4824 7.02C10.4304 7.088 10.4044 7.168 10.4044 7.26C10.4044 7.368 10.4484 7.456 10.5364 7.524C10.6244 7.588 10.7404 7.64 10.8844 7.68C11.0284 7.72 11.1864 7.76 11.3584 7.8C11.5344 7.84 11.7084 7.886 11.8804 7.938C12.0564 7.99 12.2164 8.06 12.3604 8.148C12.5044 8.236 12.6204 8.352 12.7084 8.496C12.8004 8.64 12.8464 8.822 12.8464 9.042C12.8464 9.278 12.7804 9.494 12.6484 9.69C12.5164 9.886 12.3184 10.044 12.0544 10.164C11.7944 10.284 11.4644 10.344 11.0644 10.344Z" fill="#6A48B2"/>
</svg>
