<svg width="16" height="16" viewBox="0 0 16 16" fill="none" xmlns="http://www.w3.org/2000/svg">
<path d="M4.56667 7.06666C5.03333 5.2 6.2 4.26666 8.06667 4.26666C10.8667 4.26666 11.2167 6.36666 12.6167 6.71666C13.55 6.95 14.3667 6.6 15.0667 5.66666C14.6 7.53333 13.4333 8.46666 11.5667 8.46666C8.76667 8.46666 8.41667 6.36666 7.01667 6.01666C6.08333 5.78333 5.26667 6.13333 4.56667 7.06666ZM1.06667 11.2667C1.53333 9.4 2.7 8.46666 4.56667 8.46666C7.36667 8.46666 7.71667 10.5667 9.11667 10.9167C10.05 11.15 10.8667 10.8 11.5667 9.86666C11.1 11.7333 9.93333 12.6667 8.06667 12.6667C5.26667 12.6667 4.91667 10.5667 3.51667 10.2167C2.58333 9.98333 1.76667 10.3333 1.06667 11.2667Z" fill="#75BCCF"/>
</svg>
