<svg width="16" height="16" viewBox="0 0 16 16" fill="none" xmlns="http://www.w3.org/2000/svg">
<g clip-path="url(#clip0_25_173)">
<path fill-rule="evenodd" clip-rule="evenodd" d="M6.51752 2.08012C6.20006 1.52458 6.6012 0.833344 7.24106 0.833344H8.75893C9.3988 0.833344 9.79993 1.52458 9.48246 2.08012L8.72353 3.40827C8.4036 3.96812 7.59639 3.96812 7.27646 3.40827L6.51752 2.08012ZM7.52826 1.83334L8 2.6589L8.47173 1.83334H7.52826ZM5.29675 2.16668H5.66666C5.9428 2.16668 6.16666 2.39054 6.16666 2.66668C6.16666 2.94282 5.9428 3.16668 5.66666 3.16668H5.33333C5.27677 3.16668 5.22122 3.16668 5.16666 3.1667V12.8333C5.22122 12.8333 5.27677 12.8333 5.33333 12.8333H5.66666C5.9428 12.8333 6.16666 13.0572 6.16666 13.3333C6.16666 13.6095 5.9428 13.8333 5.66666 13.8333H5.29675C5.08774 13.8333 4.88802 13.8333 4.69736 13.8324C4.68721 13.833 4.67697 13.8333 4.66666 13.8333C4.65446 13.8333 4.64235 13.8329 4.63036 13.8321C4.0187 13.8283 3.50204 13.8135 3.07216 13.7557C2.47209 13.675 1.96684 13.5024 1.56556 13.1011C1.16428 12.6998 0.991689 12.1946 0.911009 11.5945C0.833302 11.0165 0.833315 10.2817 0.833329 9.36994V6.6301C0.833315 5.71837 0.833302 4.98349 0.911009 4.40551C0.991689 3.80544 1.16428 3.30019 1.56556 2.89891C1.96684 2.49763 2.47209 2.32504 3.07216 2.24436C3.50204 2.18656 4.0187 2.17176 4.63037 2.16798C4.64235 2.16712 4.65446 2.16668 4.66666 2.16668C4.67697 2.16668 4.68721 2.16699 4.69736 2.1676C4.88802 2.16667 5.08773 2.16667 5.29675 2.16668ZM4.16666 3.17411C3.78731 3.18228 3.47319 3.19944 3.20541 3.23544C2.71623 3.30121 2.45718 3.42151 2.27267 3.60602C2.08816 3.79052 1.96786 4.04958 1.9021 4.53876C1.86609 4.80654 1.84894 5.12066 1.84076 5.50001H4.16666V3.17411ZM4.16666 6.50001H1.83336C1.83334 6.55457 1.83333 6.61012 1.83333 6.66668V9.33334C1.83333 9.38988 1.83334 9.44548 1.83336 9.50001H4.16666V6.50001ZM4.16666 10.5H1.84076C1.84894 10.8793 1.86609 11.1935 1.9021 11.4613C1.96786 11.9505 2.08816 12.2095 2.27267 12.394C2.45718 12.5785 2.71623 12.6988 3.20541 12.7646C3.47319 12.8006 3.78731 12.8177 4.16666 12.8259V10.5ZM10.8333 3.1667C10.7788 3.16668 10.7232 3.16668 10.6667 3.16668H10.3333C10.0572 3.16668 9.83333 2.94282 9.83333 2.66668C9.83333 2.39054 10.0572 2.16668 10.3333 2.16668H10.7033C10.9123 2.16667 11.112 2.16667 11.3027 2.1676C11.3128 2.16699 11.323 2.16668 11.3333 2.16668C11.3455 2.16668 11.3577 2.16712 11.3696 2.16798C11.9813 2.17176 12.4979 2.18656 12.9279 2.24436C13.5279 2.32504 14.0331 2.49763 14.4345 2.89891C14.8357 3.30019 15.0083 3.80544 15.089 4.40551C15.1667 4.98349 15.1667 5.71837 15.1667 6.6301V9.36994C15.1667 10.2817 15.1667 11.0165 15.089 11.5945C15.0083 12.1946 14.8357 12.6998 14.4345 13.1011C14.0331 13.5024 13.5279 13.675 12.9279 13.7557C12.4979 13.8135 11.9813 13.8283 11.3696 13.8321C11.3577 13.8329 11.3455 13.8333 11.3333 13.8333C11.323 13.8333 11.3128 13.833 11.3027 13.8324C11.112 13.8333 10.9123 13.8333 10.7033 13.8333H10.3333C10.0572 13.8333 9.83333 13.6095 9.83333 13.3333C9.83333 13.0572 10.0572 12.8333 10.3333 12.8333H10.6667C10.7232 12.8333 10.7788 12.8333 10.8333 12.8333V3.1667ZM11.8333 3.17411V5.50001H14.1593C14.1511 5.12066 14.1339 4.80654 14.0979 4.53876C14.0321 4.04957 13.9119 3.79052 13.7273 3.60602C13.5428 3.42151 13.2838 3.30121 12.7946 3.23544C12.5268 3.19944 12.2127 3.18228 11.8333 3.17411ZM14.1667 6.50001H11.8333V9.50001H14.1667C14.1667 9.44548 14.1667 9.38988 14.1667 9.33334V6.66668C14.1667 6.61012 14.1667 6.55457 14.1667 6.50001ZM14.1593 10.5H11.8333V12.8259C12.2127 12.8177 12.5268 12.8006 12.7946 12.7646C13.2838 12.6988 13.5428 12.5785 13.7273 12.394C13.9119 12.2095 14.0321 11.9505 14.0979 11.4613C14.1339 11.1935 14.1511 10.8793 14.1593 10.5ZM8 4.50001C8.27613 4.50001 8.5 4.72387 8.5 5.00001V5.66668C8.5 5.94282 8.27613 6.16668 8 6.16668C7.72386 6.16668 7.5 5.94282 7.5 5.66668V5.00001C7.5 4.72387 7.72386 4.50001 8 4.50001ZM8 7.16668C8.27613 7.16668 8.5 7.39054 8.5 7.66668V8.33334C8.5 8.60948 8.27613 8.83334 8 8.83334C7.72386 8.83334 7.5 8.60948 7.5 8.33334V7.66668C7.5 7.39054 7.72386 7.16668 8 7.16668ZM8 9.83334C8.27613 9.83334 8.5 10.0572 8.5 10.3333V11C8.5 11.2761 8.27613 11.5 8 11.5C7.72386 11.5 7.5 11.2761 7.5 11V10.3333C7.5 10.0572 7.72386 9.83334 8 9.83334ZM6.51752 13.9199L7.27646 12.5917C7.59639 12.0319 8.4036 12.0319 8.72353 12.5917L9.48246 13.9199C9.79993 14.4754 9.3988 15.1667 8.75893 15.1667H7.24106C6.6012 15.1667 6.20006 14.4754 6.51752 13.9199ZM8 13.3411L7.52826 14.1667H8.47173L8 13.3411Z" fill="#DA7C2B"/>
</g>
<defs>
<clipPath id="clip0_25_173">
<rect width="16" height="16" fill="white"/>
</clipPath>
</defs>
</svg>
