<svg width="15" height="15" viewBox="0 0 15 15" fill="none" xmlns="http://www.w3.org/2000/svg">
<g clip-path="url(#clip0_25_98)">
<path d="M13.5984 2.35817L10.8956 1.05692C10.743 0.98333 10.5712 0.959044 10.4042 0.987433C10.2371 1.01582 10.083 1.09548 9.96328 1.21536L1.11562 9.28161C1.00828 9.37902 0.944017 9.51508 0.936985 9.65986C0.929952 9.80464 0.980721 9.94629 1.07812 10.0536C1.08984 10.0663 1.10156 10.0785 1.11422 10.0897L1.83656 10.746C1.93095 10.8319 2.05245 10.882 2.17995 10.8877C2.30745 10.8933 2.43291 10.8541 2.53453 10.7769L13.1916 2.69567C13.2721 2.63459 13.368 2.59719 13.4686 2.58768C13.5692 2.57817 13.6705 2.59693 13.761 2.64185C13.8515 2.68677 13.9277 2.75606 13.9809 2.84192C14.0342 2.92779 14.0625 3.02682 14.0625 3.12786V3.09646C14.0625 2.94219 14.0189 2.79106 13.9368 2.66046C13.8547 2.52985 13.7374 2.42507 13.5984 2.35817Z" fill="#557DA9"/>
<path d="M13.5984 12.6422L10.8956 13.9439C10.7429 14.0173 10.5712 14.0415 10.4042 14.0131C10.2372 13.9847 10.0831 13.9052 9.96328 13.7855L1.11562 5.71876C1.00828 5.62135 0.944017 5.48529 0.936985 5.34051C0.929952 5.19572 0.980721 5.05408 1.07812 4.94673C1.08984 4.93407 1.10156 4.92188 1.11422 4.91063L1.83656 4.25438C1.93105 4.16811 2.05282 4.11776 2.18064 4.11211C2.30846 4.10645 2.4342 4.14586 2.53594 4.22344L13.1916 12.3047C13.2721 12.3658 13.368 12.4032 13.4686 12.4127C13.5692 12.4222 13.6705 12.4034 13.761 12.3585C13.8515 12.3136 13.9277 12.2443 13.9809 12.1584C14.0342 12.0726 14.0625 11.9736 14.0625 11.8725V11.9063C14.062 12.0601 14.0182 12.2107 13.9361 12.3409C13.8541 12.471 13.7371 12.5754 13.5984 12.6422Z" fill="#558FC9"/>
<path d="M10.8956 13.9439C10.7429 14.0173 10.5712 14.0415 10.4042 14.0131C10.2372 13.9847 10.0831 13.9052 9.96328 13.7855C10.0306 13.8519 10.116 13.897 10.2088 13.9151C10.3017 13.9332 10.3978 13.9235 10.4851 13.8872C10.5725 13.8509 10.6472 13.7896 10.6998 13.7111C10.7525 13.6325 10.7808 13.5402 10.7812 13.4456V1.55437C10.7813 1.45935 10.7532 1.36644 10.7004 1.28742C10.6477 1.2084 10.5726 1.14681 10.4848 1.11047C10.397 1.07413 10.3004 1.06466 10.2073 1.08327C10.1141 1.10187 10.0285 1.14772 9.9614 1.21499C10.0812 1.09515 10.2352 1.01549 10.4023 0.987025C10.5693 0.958557 10.741 0.982691 10.8937 1.05609L13.5961 2.35546C13.7355 2.42203 13.8533 2.52666 13.9358 2.65729C14.0184 2.78792 14.0623 2.93923 14.0625 3.09374V11.9062C14.0625 12.0606 14.0189 12.2119 13.9368 12.3426C13.8546 12.4733 13.7371 12.5781 13.598 12.645L10.8956 13.9439Z" fill="#75B4E2"/>
</g>
<defs>
<clipPath id="clip0_25_98">
<rect width="15" height="15" fill="white"/>
</clipPath>
</defs>
</svg>
